<?xml version="1.0" standalone="no"?>
<!DOCTYPE svg PUBLIC "-//W3C//DTD SVG 20010904//EN"
 "http://www.w3.org/TR/2001/REC-SVG-20010904/DTD/svg10.dtd">
<svg version="1.0" xmlns="http://www.w3.org/2000/svg"
 width="700.000000pt" height="700.000000pt" viewBox="0 0 700.000000 700.000000"
 preserveAspectRatio="xMidYMid meet">
<metadata>
Created by potrace 1.14, written by Peter Selinger 2001-2017
</metadata>
<g transform="translate(0.000000,700.000000) scale(0.100000,-0.100000)"
fill="#000000" stroke="none">
<path d="M1395 5971 c-80 -20 -159 -81 -195 -152 -27 -52 -35 -118 -34 -276 0
-79 -2 -144 -5 -144 -3 -1 -112 -2 -241 -3 -148 -2 -251 -7 -277 -14 -88 -26
-171 -114 -194 -207 -9 -38 -12 -493 -13 -1955 -1 -1048 3 -1929 7 -1958 15
-106 82 -193 186 -240 87 -40 180 -36 292 11 184 77 467 155 624 173 33 3 63
8 66 10 11 7 244 18 359 17 108 0 247 -9 280 -18 8 -2 35 -7 60 -10 317 -44
780 -228 1073 -427 67 -46 124 -58 172 -36 17 7 62 34 100 59 288 188 676 342
1000 398 33 6 74 13 90 16 135 23 508 24 630 1 11 -2 46 -7 79 -11 177 -21
406 -84 606 -166 92 -37 115 -43 180 -43 60 0 87 5 132 26 94 44 166 131 184
223 4 22 7 906 7 1965 0 2159 6 1993 -73 2083 -23 26 -65 58 -97 74 l-57 27
-251 1 -250 2 -1 175 c-1 166 -3 179 -27 232 -30 66 -75 112 -143 146 -54 27
-131 31 -349 17 -222 -13 -582 -69 -720 -111 -5 -1 -23 -6 -40 -11 -139 -36
-365 -124 -495 -193 -167 -89 -363 -236 -497 -373 l-63 -64 -102 100 c-397
388 -929 595 -1673 649 -145 11 -300 14 -330 7z m273 -296 c62 -3 121 -8 130
-10 9 -1 49 -6 87 -9 39 -4 81 -9 95 -11 14 -3 41 -7 60 -10 141 -23 231 -43
359 -80 283 -83 505 -198 711 -371 78 -65 212 -204 235 -243 10 -17 15 -3521
4 -3521 -3 0 -21 16 -40 36 -34 37 -134 124 -203 179 -124 98 -364 236 -536
308 -129 55 -396 131 -540 156 -36 6 -74 13 -86 15 -12 2 -45 7 -75 11 -30 3
-65 8 -79 10 -27 5 -116 12 -244 20 -44 3 -81 7 -83 9 -7 7 -5 3505 2 3515 3
5 24 8 48 6 23 -2 93 -6 155 -10z m3872 -35 c3 -430 0 -3473 -3 -3476 -2 -3
-40 -7 -83 -9 -347 -20 -690 -85 -929 -176 -33 -13 -62 -24 -65 -24 -38 -10
-253 -116 -338 -167 -118 -70 -291 -199 -382 -285 -41 -39 -79 -70 -85 -69 -6
1 -9 648 -10 1750 l0 1749 77 86 c92 101 113 121 196 190 214 174 494 305 812
380 98 23 288 57 375 66 33 3 74 8 90 10 17 2 82 7 145 10 63 4 116 8 117 9 1
1 20 2 43 1 l40 0 0 -45z m-4379 -539 c3 -1 5 -676 6 -1501 l0 -1499 32 -65
c34 -69 81 -114 148 -143 42 -18 61 -21 148 -27 33 -3 98 -8 145 -11 47 -4
101 -9 120 -10 19 -2 49 -5 65 -8 29 -5 60 -10 143 -23 20 -3 51 -9 67 -14 17
-5 44 -11 60 -14 38 -6 120 -28 215 -59 259 -83 514 -227 715 -405 l49 -43
-51 20 c-29 11 -69 28 -90 37 -180 76 -532 162 -746 181 -106 9 -400 9 -497
-1 -114 -11 -181 -19 -240 -30 -19 -3 -46 -8 -60 -10 -140 -24 -374 -91 -518
-149 -59 -23 -115 -41 -124 -39 -17 3 -18 102 -18 1907 0 1286 3 1904 10 1907
9 3 404 2 421 -1z m5102 0 c4 -1 7 -858 7 -1906 l0 -1905 -25 0 c-14 0 -42 7
-63 16 -141 60 -437 149 -562 168 -19 3 -44 8 -56 10 -12 2 -45 8 -75 11 -30
4 -65 9 -79 11 -188 25 -521 24 -695 -1 -256 -38 -478 -99 -750 -210 l-40 -16
35 31 c69 62 234 181 313 229 160 94 389 189 546 227 269 64 389 81 681 99 91
6 125 13 165 33 63 31 105 74 137 139 l32 65 0 1492 c1 820 4 1496 8 1501 5 8
371 13 421 6z"/>
</g>
</svg>
