<?xml version="1.0" encoding="utf-8"?>
<!-- Generator: Adobe Illustrator 27.5.0, SVG Export Plug-In . SVG Version: 6.00 Build 0)  -->
<svg version="1.1" xmlns="http://www.w3.org/2000/svg" xmlns:xlink="http://www.w3.org/1999/xlink" x="0px" y="0px"
	 viewBox="0 0 500 500" style="enable-background:new 0 0 300 300;" xml:space="preserve">
<g id="OBJECTS">
	<g>
		<path style="fill:#FFB534;" d="M381.453,159.092v127.832l-104.182,11.335l-22.86,21.825c-2.631,2.512-6.779,2.489-9.383-0.052
			l-22.309-21.774l-104.172-11.335V159.092l16.297,3.311l51.641,10.484h127.031l51.631-10.484L381.453,159.092z"/>
		<g>
			<polygon style="fill:#392467;" points="365.171,162.398 365.171,275.415 381.453,159.092 			"/>
			<polygon style="fill:#392467;" points="134.823,275.51 134.823,162.403 118.547,159.092 			"/>
		</g>
		<g>
			<path style="fill:#FFB534;" d="M250.001,157.35c11.687-9.439,33.097-15.769,57.59-15.769c24.484,0,45.894,6.33,57.581,15.769
				v119.718c-11.687-9.439-33.097-15.769-57.581-15.769c-24.493,0-45.903,6.33-57.59,15.769V157.35z"/>
			<path style="fill:#FFB534;" d="M250,157.352v119.72c-11.685-9.447-33.093-15.768-57.577-15.768
				c-10.255,0-19.958,1.104-28.636,3.077c-12.07,2.751-22.157,7.198-28.961,12.691v-119.72c0.03-0.02,0.049-0.039,0.079-0.059
				c2.781-2.248,6.104-4.309,9.89-6.133c1.844-0.907,3.806-1.755,5.857-2.544c11.458-4.398,25.973-7.031,41.771-7.031
				C216.907,141.585,238.315,147.916,250,157.352z"/>
		</g>
		<path style="fill:#D5DCE0;" d="M250.119,165.842c-0.083,0.055-0.165,0.119-0.238,0.184l0.211-0.211L250.119,165.842z"/>
		<path style="fill:#EFEFEF;" d="M267.592,290.618h-35.185l14.537,17.473c1.426,1.714,4.049,1.738,5.507,0.051L267.592,290.618z"/>
		<path style="fill:#EFEFEF;" d="M267.592,290.618h-35.185V129.327c0-4.007,3.248-7.256,7.256-7.256h20.673
			c4.007,0,7.256,3.248,7.256,7.256V290.618z"/>
		<g>
			<path style="fill:#EFEFEF;" d="M365.177,275.415h-91.032c2.309-1.866,5.092-3.574,8.27-5.092
				c1.969-0.933,4.087-1.795,6.333-2.577c8.697-3.012,19.37-4.791,30.905-4.791C339.007,262.955,355.934,267.952,365.177,275.415z"
				/>
			<path style="fill:#EFEFEF;" d="M227.232,275.51h-92.408c9.376-7.578,26.554-12.651,46.204-12.651
				c11.704,0,22.54,1.798,31.362,4.857c2.288,0.795,4.439,1.67,6.438,2.617C222.062,271.882,224.888,273.616,227.232,275.51z"/>
		</g>
		<g>
			<g>
				<path style="fill:#FFB534;" d="M259.166,290.95h-18.421c-1.431,0-2.213,1.669-1.298,2.769l7.046,8.469
					c1.709,2.054,4.853,2.084,6.601,0.061l7.35-8.507C261.389,292.649,260.612,290.95,259.166,290.95z"/>
				<path style="fill:#392467;" d="M259.166,290.95h-7.189c1.446,0,2.223,1.699,1.278,2.793l-7.024,8.13l0.263,0.316
					c1.709,2.054,4.853,2.084,6.601,0.061l7.35-8.507C261.389,292.649,260.612,290.95,259.166,290.95z"/>
				<g>
					<path style="fill:#DF566B;" d="M237.41,285.616V149.437c0-1.243,1.011-2.253,2.254-2.253h20.673
						c1.243,0,2.254,1.011,2.254,2.253v136.179H237.41z"/>
				</g>
				<g>
					<path style="fill:#BF3650;" d="M260.336,147.184h-7.731v138.432h9.985V149.437C262.59,148.194,261.579,147.184,260.336,147.184
						z"/>
				</g>
			</g>
			<path style="fill:#FFB534;" d="M237.41,143.236v-11.455c0-2.982,2.417-5.399,5.398-5.399h14.383c2.982,0,5.399,2.417,5.399,5.399
				v11.455H237.41z"/>
			<path style="fill:#392467;" d="M262.59,131.78v11.46h-10.4v-11.46c0-2.98-2.41-5.4-5.39-5.4h10.39
				C260.17,126.38,262.59,128.8,262.59,131.78z"/>
		</g>
		<g>
			<g>
				<path style="fill:#EFEFEF;" d="M171.344,207.866c0,2.518-2.041,4.56-4.56,4.56c-2.518,0-4.56-2.041-4.56-4.56
					c0-2.518,2.041-4.56,4.56-4.56C169.302,203.306,171.344,205.347,171.344,207.866z"/>
				<path style="fill:#EFEFEF;" d="M191.102,207.866c0,2.518-2.041,4.56-4.56,4.56c-2.518,0-4.56-2.041-4.56-4.56
					c0-2.518,2.041-4.56,4.56-4.56C189.061,203.306,191.102,205.347,191.102,207.866z"/>
				<path style="fill:#EFEFEF;" d="M210.98,207.866c0,2.518-2.041,4.56-4.56,4.56c-2.518,0-4.56-2.041-4.56-4.56
					c0-2.518,2.041-4.56,4.56-4.56C208.938,203.306,210.98,205.347,210.98,207.866z"/>
			</g>
			<path style="fill:#EFEFEF;" d="M313.718,180.365c-14.518,0.42-26.372,13.269-26.372,27.794v25.282
				c0,1.722,2.082,2.584,3.299,1.367l6.437-6.437c5.281,4.425,12.266,6.884,19.831,6.237c13.096-1.12,23.676-11.781,24.702-24.885
				C342.89,193.452,329.824,179.899,313.718,180.365z"/>
		</g>
	</g>
</g>
<g id="TEXTS">
	<g>
			<text transform="matrix(1 0 0 1 133.7817 408.1773)" x="40" y="-30" style="fill:#DE4B54; font-family:'Montserrat-Bold'; font-size:50px;">PT - ET</text>
	</g>
</g>
</svg>
